<svg xmlns="http://www.w3.org/2000/svg" version="1.1" xmlns:xlink="http://www.w3.org/1999/xlink" xmlns:svgjs="http://svgjs.dev/svgjs" width="1000" height="1000" viewBox="0 0 1000 1000"><rect width="1000" height="1000" fill="#ffffff"></rect><g transform="matrix(0.7,0,0,0.7,149.57575917981814,321.11154870280706)"><svg viewBox="0 0 396 202" data-background-color="#ffffff" preserveAspectRatio="xMidYMid meet" height="510" width="1000" xmlns="http://www.w3.org/2000/svg" xmlns:xlink="http://www.w3.org/1999/xlink"><g id="tight-bounds" transform="matrix(1,0,0,1,0.2399991457303372,0.2197959720811724)"><svg viewBox="0 0 395.52 201.60202254747898" height="201.60202254747898" width="395.52"><g><svg viewBox="0 0 395.52 201.60202254747898" height="201.60202254747898" width="395.52"><g transform="matrix(1,0,0,1,0,121.89487447819096)"><svg viewBox="0 0 395.52 79.70714806928802" height="79.70714806928802" width="395.52"><g><svg viewBox="0 0 395.52 79.70714806928802" height="79.70714806928802" width="395.52"><g><svg viewBox="0 0 395.52 49.72803608344296" height="49.72803608344296" width="395.52"><g transform="matrix(1,0,0,1,0,0)"><svg width="395.52" viewBox="0.6500000357627869 -32.95000076293945 266.0299987792969 33.45000076293945" height="49.72803608344296" data-palette-color="#0080ff"><path d="M28.8-11.5L29.4-10.75Q28.55-6.35 28-0.45L28-0.45 27.25 0.35Q18.85 0 11.2 0L11.2 0Q6.3 0 0.65 0.5L0.65 0.5 1.1-4.1Q3-4.4 3.68-5.33 4.35-6.25 4.35-8.5L4.35-8.5 4.4-25.25Q4.4-26.9 4.15-27.43 3.9-27.95 3.05-27.95L3.05-27.95Q2.35-27.95 1.75-27.85L1.75-27.85 1.15-28.55 1.6-32.5Q2.6-32.5 3.15-32.45L3.15-32.45Q9.25-32.35 13.25-32.35L13.25-32.35Q17.95-32.35 22.28-32.52 26.6-32.7 28.7-32.95L28.7-32.95 29.35-32.15Q28.95-30.1 28.63-27.25 28.3-24.4 28.2-22.2L28.2-22.2 21.3-21.75 21.4-23.6Q21.4-24.75 21.03-25.33 20.65-25.9 19.63-26.13 18.6-26.35 16.5-26.35L16.5-26.35Q15.45-26.35 15.13-26.1 14.8-25.85 14.8-25L14.8-25 14.5-19.35 18.6-19.3Q20.6-19.3 24.1-19.6L24.1-19.6 24.7-18.9 24-13.15Q19.2-13.3 18-13.3L18-13.3Q16.95-13.3 14.25-13L14.25-13 14.2-8.75Q14.2-7.4 14.38-6.78 14.55-6.15 15.03-5.95 15.5-5.75 16.6-5.75L16.6-5.75Q18.85-5.75 19.95-6.15 21.05-6.55 21.58-7.63 22.1-8.7 22.4-11.05L22.4-11.05 28.8-11.5ZM30.75 0.4L31.15-3.5Q32.7-3.7 33.25-4.45 33.8-5.2 33.8-6.95L33.8-6.95 33.8-19.5Q33.8-20.7 33.5-21.08 33.2-21.45 32.35-21.45L32.35-21.45 31.35-21.45 30.9-22.05 31.25-25.2 38.2-25.2Q40.45-25.2 43.32-25.28 46.2-25.35 47.35-25.35L47.35-25.35 46.85-21.2Q44.65-21 43.9-20.65 43.15-20.3 43.1-19.45L43.1-19.45Q42.65-13.6 42.65-6.4L42.65-6.4Q42.65-4.95 43.95-4.95L43.95-4.95Q45.35-4.95 46.07-5.48 46.8-6 47.12-7.35 47.45-8.7 47.6-11.45L47.6-11.45 53.35-12 53.9-11.35Q53.8-10.45 53.47-7.23 53.15-4 52.95-0.45L52.95-0.45 52.25 0.25Q51.2 0.2 47.5 0.1 43.8 0 39.9 0L39.9 0Q37.15 0 34.35 0.18 31.55 0.35 30.75 0.4L30.75 0.4ZM54.9 0.4L55.3-3.5Q56.8-3.7 57.35-4.45 57.9-5.2 57.9-6.95L57.9-6.95 57.95-19.35Q57.95-20.65 57.75-21.05 57.55-21.45 56.9-21.45L56.9-21.45 55.85-21.4 55.3-22 55.7-25.3Q56.75-25.3 59.67-25.25 62.6-25.2 65.84-25.2L65.84-25.2Q69.59-25.2 73.3-25.33 77-25.45 78.75-25.65L78.75-25.65 79.34-25Q79.2-24.25 78.87-21.78 78.55-19.3 78.4-17L78.4-17 72.15-16.65Q72.15-16.8 72.2-17.2 72.25-17.6 72.25-18.05L72.25-18.05Q72.25-19.25 71.5-19.65 70.75-20.05 68.5-20.05L68.5-20.05Q67.75-20.05 67.5-19.85 67.25-19.65 67.25-19.1L67.25-19.1 67.05-15.25 70.3-15.25Q71.55-15.25 72.9-15.33 74.25-15.4 74.8-15.45L74.8-15.45 75.34-14.8 74.75-9.95Q74.25-9.95 72.84-10 71.45-10.05 69.9-10.05L69.9-10.05Q69.05-10.05 68.09-9.98 67.15-9.9 66.8-9.85L66.8-9.85Q66.75-9.3 66.77-8.5 66.8-7.7 66.8-7.3L66.8-7.3Q66.8-5.8 67.09-5.38 67.4-4.95 68.59-4.95L68.59-4.95Q70.25-4.95 71.07-5.25 71.9-5.55 72.32-6.38 72.75-7.2 73-8.95L73-8.95 78.75-9.35 79.3-8.7Q79.15-8 78.77-5.58 78.4-3.15 78.15-0.4L78.15-0.4 77.45 0.25Q76.3 0.2 72.27 0.1 68.25 0 64.05 0L64.05 0Q61.25 0 58.47 0.18 55.7 0.35 54.9 0.4L54.9 0.4ZM102.24-25.2L107.44-25.25 107.14-21.55Q106.54-21.35 106.27-20.93 105.99-20.5 105.59-19.4L105.59-19.4 99.79-0.15 87.19 0.5Q86.59-2.1 84.87-9.5 83.14-16.9 82.59-18.85L82.59-18.85Q82.24-20.2 81.77-20.8 81.29-21.4 80.54-21.5L80.54-21.5 80.19-21.95 80.54-25.3Q81.14-25.3 82.79-25.25 84.44-25.2 86.34-25.2L86.34-25.2Q89.39-25.2 91.59-25.25 93.79-25.3 94.49-25.35L94.49-25.35 94.84-25 94.59-21.4Q93.54-21.3 92.92-21.18 92.29-21.05 92.19-20.88 92.09-20.7 92.09-20.15L92.09-20.15Q92.09-19.15 92.87-14 93.64-8.85 93.94-7.05L93.94-7.05 94.89-7.05Q97.84-19.6 97.84-20.7L97.84-20.7Q97.84-21.15 97.67-21.25 97.49-21.35 96.79-21.35L96.79-21.35 95.84-21.35 95.49-21.8 95.79-25.3Q96.44-25.3 98.32-25.25 100.19-25.2 102.24-25.2L102.24-25.2ZM119.04 0.2L118.69-0.15 118.94-3.75Q119.99-3.85 120.62-3.98 121.24-4.1 121.37-4.3 121.49-4.5 121.49-5.05L121.49-5.05 121.44-5.5 121.34-6.55Q120.19-6.6 118.29-6.6L118.29-6.6Q117.74-6.6 116.34-6.5L116.34-6.5 115.14-6.45 114.84-5.15 114.79-4.45Q114.79-4 114.94-3.9 115.09-3.8 115.89-3.8L115.89-3.8 116.79-3.8 117.19-3.35 116.84 0.15Q116.19 0.15 114.29 0.1 112.39 0.05 110.34 0.05L110.34 0.05 104.69 0.05 104.99-3.6Q106.39-4 106.94-5.55L106.94-5.55 113.34-25 125.39-25.65 126.04-25.1Q126.69-22.65 128.27-16.63 129.84-10.6 131.04-6.25L131.04-6.25Q131.39-4.95 131.92-4.35 132.44-3.75 133.29-3.65L133.29-3.65 133.59-3.2 133.24 0.1 127.24 0.05Q124.24 0.05 121.99 0.1 119.74 0.15 119.04 0.2L119.04 0.2ZM116.54-11.9L118.44-11.9Q119.64-11.9 120.39-11.95L120.39-11.95 119.19-18.15 118.24-18.15 116.54-11.9ZM135.59 0.4L135.89-3.55Q138.39-3.75 139.21-4.35 140.04-4.95 140.04-6.55L140.04-6.55 140.04-19.95Q139.09-19.95 138.64-19.48 138.19-19 137.96-17.93 137.74-16.85 137.54-14.55L137.54-14.55 131.99-14.25Q132.04-15.3 132.14-18.35 132.24-21.4 132.29-25.05L132.29-25.05 132.84-25.65 137.99-25.2 151.04-25.2 156.24-25.65 156.84-25.05Q156.84-21.4 156.89-18.45 156.94-15.5 156.99-14.55L156.99-14.55 151.39-14.25Q151.19-16.9 151.01-18 150.84-19.1 150.41-19.53 149.99-19.95 149.09-19.95L149.09-19.95Q148.94-13.95 148.94-6.55L148.94-6.55Q148.94-5.05 149.41-4.45 149.89-3.85 151.09-3.85L151.09-3.85Q151.79-3.85 152.36-3.9 152.94-3.95 153.14-4L153.14-4 153.39-3.75 152.99 0.25Q151.99 0.2 149.31 0.1 146.64 0 144.29 0L144.29 0Q142.59 0 139.56 0.18 136.54 0.35 135.59 0.4L135.59 0.4ZM157.89 0.4L158.29-3.5Q159.79-3.7 160.34-4.45 160.89-5.2 160.89-6.95L160.89-6.95 160.94-19.35Q160.94-20.65 160.74-21.05 160.54-21.45 159.89-21.45L159.89-21.45 158.84-21.4 158.29-22 158.69-25.3Q159.74-25.3 162.66-25.25 165.59-25.2 168.84-25.2L168.84-25.2Q172.59-25.2 176.29-25.33 179.99-25.45 181.74-25.65L181.74-25.65 182.34-25Q182.19-24.25 181.86-21.78 181.54-19.3 181.39-17L181.39-17 175.14-16.65Q175.14-16.8 175.19-17.2 175.24-17.6 175.24-18.05L175.24-18.05Q175.24-19.25 174.49-19.65 173.74-20.05 171.49-20.05L171.49-20.05Q170.74-20.05 170.49-19.85 170.24-19.65 170.24-19.1L170.24-19.1 170.04-15.25 173.29-15.25Q174.54-15.25 175.89-15.33 177.24-15.4 177.79-15.45L177.79-15.45 178.34-14.8 177.74-9.95Q177.24-9.95 175.84-10 174.44-10.05 172.89-10.05L172.89-10.05Q172.04-10.05 171.09-9.98 170.14-9.9 169.79-9.85L169.79-9.85Q169.74-9.3 169.76-8.5 169.79-7.7 169.79-7.3L169.79-7.3Q169.79-5.8 170.09-5.38 170.39-4.95 171.59-4.95L171.59-4.95Q173.24-4.95 174.06-5.25 174.89-5.55 175.31-6.38 175.74-7.2 175.99-8.95L175.99-8.95 181.74-9.35 182.29-8.7Q182.14-8 181.76-5.58 181.39-3.15 181.14-0.4L181.14-0.4 180.44 0.25Q179.29 0.2 175.26 0.1 171.24 0 167.04 0L167.04 0Q164.24 0 161.46 0.18 158.69 0.35 157.89 0.4L157.89 0.4ZM188.38 0.45L188.78-4.15Q190.98-4.3 192.06-4.67 193.13-5.05 193.53-5.8 193.93-6.55 193.93-8.1L193.93-8.1 193.93-8.9Q193.93-10 193.63-10.98 193.33-11.95 192.53-13.4L192.53-13.4 187.18-23.35Q185.68-26.1 182.23-27.55L182.23-27.55 182.03-27.85 182.53-32.4 190.03-32.3Q191.48-32.3 194.71-32.45 197.93-32.6 199.03-32.65L199.03-32.65 199.38-32.1 198.93-28Q196.88-28 196.88-26.75L196.88-26.75Q196.88-26.25 197.73-24.13 198.58-22 198.83-21.35L198.83-21.35 199.68-19.35 200.38-19.35 202.43-25.05Q203.08-26.5 203.08-27.25L203.08-27.25Q203.08-27.7 202.66-27.88 202.23-28.05 201.18-28.05L201.18-28.05 201.03-28.35 201.43-32.3 209.33-32.3Q210.93-32.3 212.71-32.38 214.48-32.45 214.98-32.5L214.98-32.5 215.18-32.1 214.78-27.75Q213.18-26.85 211.73-25.2 210.28-23.55 209.23-21.45L209.23-21.45 204.68-12.35Q204.18-11.15 204.06-10.23 203.93-9.3 203.93-7.7L203.93-7.7Q203.93-5.95 204.48-5.25 205.03-4.55 206.43-4.55L206.43-4.55Q207.38-4.55 208.08-4.6 208.78-4.65 208.98-4.7L208.98-4.7 209.23-4.4 208.78 0.3Q207.58 0.25 203.91 0.13 200.23 0 198.43 0L198.43 0Q196.43 0 192.96 0.2 189.48 0.4 188.38 0.45L188.38 0.45ZM225.98 0.45Q219.88 0.45 216.71-2.78 213.53-6 213.53-12.25L213.53-12.25Q213.53-18.9 216.96-22.28 220.38-25.65 227.08-25.65L227.08-25.65Q233.38-25.65 236.46-22.58 239.53-19.5 239.53-13.2L239.53-13.2Q239.53-6.55 236.06-3.05 232.58 0.45 225.98 0.45L225.98 0.45ZM226.73-4.95Q228.18-4.95 228.71-6.15 229.23-7.35 229.23-10.6L229.23-10.6Q229.23-14.3 228.98-16.25 228.73-18.2 228.11-19 227.48-19.8 226.28-19.8L226.28-19.8Q225.28-19.8 224.76-19.3 224.23-18.8 224.03-17.63 223.83-16.45 223.83-14.25L223.83-14.25Q223.83-10.55 224.08-8.58 224.33-6.6 224.93-5.78 225.53-4.95 226.73-4.95L226.73-4.95ZM253.28 0.45Q247.78 0.45 245.35-1.45 242.93-3.35 242.93-7.65L242.93-7.65 242.93-19.35Q242.93-20.65 242.7-21.05 242.48-21.45 241.78-21.45L241.78-21.45 240.63-21.4 240.53-21.55 240.98-25.3Q241.68-25.3 243.83-25.25 245.98-25.2 248.68-25.2L248.68-25.2Q250.23-25.2 251.98-25.28 253.73-25.35 254.38-25.35L254.38-25.35 253.93-21.35Q252.93-21.3 252.5-20.88 252.08-20.45 252.03-19.55L252.03-19.55 251.78-8.35Q251.78-6.8 252.48-5.88 253.18-4.95 254.48-4.95L254.48-4.95Q255.78-4.95 256.38-5.6 256.98-6.25 256.98-7.8L256.98-7.8 256.93-19.35Q256.98-20.55 256.75-21 256.53-21.45 255.93-21.45L255.93-21.45 255.08-21.4 254.93-21.55 255.43-25.3Q255.98-25.3 257.5-25.25 259.03-25.2 260.43-25.2L260.43-25.2Q262.53-25.2 264.3-25.25 266.08-25.3 266.68-25.3L266.68-25.3 266.33-21.45Q265.13-21.05 264.78-20.75 264.43-20.45 264.43-19.85L264.43-19.85 264.43-9.25Q264.43-4.45 261.63-2 258.83 0.45 253.28 0.45L253.28 0.45Z" opacity="1" transform="matrix(1,0,0,1,0,0)" fill="#0080ff" class="undefined-text-0" data-fill-palette-color="primary" id="text-0"></path></svg></g></svg></g><g transform="matrix(1,0,0,1,75.54432,61.46763192987784)"><svg viewBox="0 0 244.43135999999998 18.23951613941019" height="18.23951613941019" width="244.43135999999998"><g transform="matrix(1,0,0,1,0,0)"><svg width="244.43135999999998" viewBox="2.049999952316284 -37.599998474121094 671.3099975585938 50.099998474121094" height="18.23951613941019" data-palette-color="#0080ff"><path d="M24.8-9L26.05-8.5Q25.35-6.25 24-4.5 22.65-2.75 20.85-1.55 19.05-0.35 16.95 0.28 14.85 0.9 12.7 0.9L12.7 0.9Q9.85 0.9 7.83-0.13 5.8-1.15 4.53-2.75 3.25-4.35 2.65-6.38 2.05-8.4 2.05-10.45L2.05-10.45Q2.05-14.15 3.83-16.85 5.6-19.55 8.8-20.85L8.8-20.85Q6.4-22.35 5.35-24.3 4.3-26.25 4.3-28.4L4.3-28.4Q4.3-30.05 4.9-31.7 5.5-33.35 6.75-34.65 8-35.95 9.83-36.77 11.65-37.6 14.15-37.6L14.15-37.6Q15.5-37.6 16.88-37.3 18.25-37 19.35-36.27 20.45-35.55 21.13-34.33 21.8-33.1 21.8-31.25L21.8-31.25Q21.8-29.35 21.05-28.25 20.3-27.15 19.05-27.15L19.05-27.15Q17.7-27.15 16.4-28.5L16.4-28.5Q17.1-28.8 17.78-29.73 18.45-30.65 18.45-32.1L18.45-32.1Q18.45-33.05 18.1-33.73 17.75-34.4 17.18-34.85 16.6-35.3 15.9-35.5 15.2-35.7 14.45-35.7L14.45-35.7Q13.1-35.7 12.05-35.1 11-34.5 10.3-33.52 9.6-32.55 9.22-31.33 8.85-30.1 8.85-28.85L8.85-28.85Q8.85-28.3 8.97-27.18 9.1-26.05 9.68-24.83 10.25-23.6 11.38-22.48 12.5-21.35 14.45-20.9L14.45-20.9Q11.15-20.15 9.38-17.53 7.6-14.9 7.6-11.3L7.6-11.3Q7.6-7.7 9.53-5.38 11.45-3.05 15.45-3.05L15.45-3.05Q17.25-3.05 18.78-3.53 20.3-4 21.48-4.83 22.65-5.65 23.5-6.73 24.35-7.8 24.8-9L24.8-9ZM24.65-25L29.65-25 29.65-21.55Q30.95-23.95 32.4-24.6 33.85-25.25 35.15-25.25L35.15-25.25Q36.45-25.25 37.42-24.9 38.4-24.55 39.1-23.95 39.8-23.35 40.27-22.55 40.75-21.75 41.05-20.8L41.05-20.8Q41.75-22.3 42.5-23.18 43.25-24.05 44-24.53 44.75-25 45.47-25.13 46.2-25.25 46.8-25.25L46.8-25.25Q49.05-25.25 50.42-24.4 51.8-23.55 52.5-22.23 53.2-20.9 53.42-19.33 53.65-17.75 53.65-16.3L53.65-16.3Q53.65-15.4 53.6-14.33 53.55-13.25 53.5-12.13 53.45-11 53.4-9.88 53.35-8.75 53.35-7.8L53.35-7.8Q53.35-7.4 53.4-6.68 53.45-5.95 53.65-5.25 53.85-4.55 54.3-4.03 54.75-3.5 55.6-3.5L55.6-3.5Q56.75-3.5 57.67-4.8 58.6-6.1 59.2-8.95L59.2-8.95 61.05-8.95Q60.5-5.8 59.65-3.98 58.8-2.15 57.85-1.2 56.9-0.25 55.95 0.03 55 0.3 54.2 0.3L54.2 0.3Q52.6 0.3 51.5-0.33 50.4-0.95 49.7-2 49-3.05 48.67-4.45 48.35-5.85 48.35-7.35L48.35-7.35Q48.35-7.8 48.37-9.03 48.4-10.25 48.42-11.65 48.45-13.05 48.47-14.3 48.5-15.55 48.5-16.05L48.5-16.05Q48.5-17.65 48.25-18.7 48-19.75 47.55-20.35 47.1-20.95 46.52-21.2 45.95-21.45 45.3-21.45L45.3-21.45Q43.75-21.45 42.77-20.2 41.8-18.95 41.4-16L41.4-16 41.4 0 36.4 0 36.4-16.7Q36.4-17.6 36.32-18.45 36.25-19.3 35.95-19.98 35.65-20.65 35.1-21.05 34.55-21.45 33.6-21.45L33.6-21.45Q32-21.45 31.17-20.13 30.35-18.8 29.65-16L29.65-16 29.65 0 24.65 0 24.65-25ZM59.3-26.85L64.34-26.85 64.34-23Q65.3-24 66.57-24.63 67.84-25.25 69.55-25.25L69.55-25.25Q71.3-25.25 72.8-24.5 74.3-23.75 75.42-22.23 76.55-20.7 77.2-18.38 77.84-16.05 77.84-12.85L77.84-12.85Q77.84-6.6 75.5-3.15 73.15 0.3 69.25 0.3L69.25 0.3Q67.59 0.3 66.42-0.33 65.25-0.95 64.34-2.1L64.34-2.1 64.34 11.25 59.3 12.5 59.3-26.85ZM67.8-22L67.8-22Q66.7-22 65.82-21.38 64.95-20.75 64.34-19.6L64.34-19.6 64.34-4.6Q65.05-3.7 65.92-3.3 66.8-2.9 67.65-2.9L67.65-2.9Q68.9-2.9 69.84-3.7 70.8-4.5 71.47-5.88 72.15-7.25 72.5-9.1 72.84-10.95 72.84-13.05L72.84-13.05Q72.84-15.65 72.37-17.38 71.9-19.1 71.15-20.13 70.4-21.15 69.5-21.58 68.59-22 67.8-22ZM89.59-25.25L89.59-25.25Q91.54-25.25 92.94-24.65 94.34-24.05 95.24-22.98 96.14-21.9 96.67-20.45 97.19-19 97.44-17.35L97.44-17.35 97.74-17.35Q99.84-17.35 101.59-18.2 103.34-19.05 104.59-20.35L104.59-20.35 105.34-19Q104.34-17.4 102.17-16.35 99.99-15.3 97.69-14.9L97.69-14.9Q97.69-14.4 97.72-13.9 97.74-13.4 97.74-12.85L97.74-12.85Q97.74-6.7 95.49-3.2 93.24 0.3 89.19 0.3L89.19 0.3Q87.54 0.3 85.87-0.3 84.19-0.9 82.84-2.3 81.49-3.7 80.67-5.9 79.84-8.1 79.84-11.35L79.84-11.35Q79.84-13.55 80.32-16 80.79-18.45 81.92-20.5 83.04-22.55 84.92-23.9 86.79-25.25 89.59-25.25ZM90.09-3.5L90.09-3.5Q92.74-3.5 93.99-6.13 95.24-8.75 95.24-13.55L95.24-13.55Q95.24-13.85 95.24-14.15 95.24-14.45 95.19-14.75L95.19-14.75Q93.74-14.85 93.12-15.4 92.49-15.95 92.49-17.25L92.49-17.25Q92.49-18.4 92.99-18.88 93.49-19.35 94.49-19.4L94.49-19.4Q93.89-21.15 92.97-21.83 92.04-22.5 90.89-22.5L90.89-22.5Q89.34-22.5 88.27-21.48 87.19-20.45 86.52-18.85 85.84-17.25 85.54-15.33 85.24-13.4 85.24-11.55L85.24-11.55Q85.24-9.1 85.69-7.55 86.14-6 86.84-5.1 87.54-4.2 88.39-3.85 89.24-3.5 90.09-3.5ZM101.39-25L106.39-25 106.39-8Q106.39-5.55 107.24-4.53 108.09-3.5 109.39-3.5L109.39-3.5Q110.09-3.5 110.79-3.88 111.49-4.25 112.04-4.95 112.59-5.65 112.94-6.65 113.29-7.65 113.29-8.95L113.29-8.95 113.29-25 118.29-25 118.29-8Q118.29-7.15 118.39-6.35 118.49-5.55 118.82-4.93 119.14-4.3 119.72-3.9 120.29-3.5 121.19-3.5L121.19-3.5Q122.74-3.5 123.79-4.63 124.84-5.75 125.52-7.55 126.19-9.35 126.49-11.58 126.79-13.8 126.79-16L126.79-16Q126.79-17.4 126.69-18.78 126.59-20.15 126.34-21.25L126.34-21.25Q126.09-21 125.69-20.93 125.29-20.85 125.04-20.85L125.04-20.85Q123.84-20.85 123.24-21.7 122.64-22.55 122.64-23.5L122.64-23.5Q122.64-24.5 123.29-25.28 123.94-26.05 125.19-26.05L125.19-26.05Q126.04-26.05 126.82-25.55 127.59-25.05 128.17-23.98 128.74-22.9 129.07-21.15 129.39-19.4 129.39-16.85L129.39-16.85Q129.39-14 128.92-10.98 128.44-7.95 127.34-5.45 126.24-2.95 124.49-1.33 122.74 0.3 120.14 0.3L120.14 0.3Q118.19 0.3 116.44-0.7 114.69-1.7 113.84-3.6L113.84-3.6Q112.84-1.55 111.42-0.63 109.99 0.3 108.44 0.3L108.44 0.3Q106.99 0.3 105.69-0.1 104.39-0.5 103.44-1.43 102.49-2.35 101.94-3.83 101.39-5.3 101.39-7.45L101.39-7.45 101.39-25ZM148.19-18.75L148.19-18.75Q148.19-15.25 145.31-12.9 142.44-10.55 137.34-10L137.34-10Q137.54-8 138.06-6.75 138.59-5.5 139.34-4.78 140.09-4.05 141.06-3.78 142.04-3.5 143.09-3.5L143.09-3.5Q145.49-3.5 147.59-4.75 149.69-6 150.99-8.95L150.99-8.95 152.59-8.95Q151.94-7.1 150.79-5.43 149.64-3.75 148.09-2.48 146.54-1.2 144.74-0.45 142.94 0.3 141.04 0.3L141.04 0.3Q139.29 0.3 137.66-0.3 136.04-0.9 134.79-2.27 133.54-3.65 132.76-5.85 131.99-8.05 131.99-11.25L131.99-11.25Q131.99-13.35 132.46-15.8 132.94-18.25 134.06-20.35 135.19-22.45 137.01-23.85 138.84-25.25 141.54-25.25L141.54-25.25Q142.79-25.25 143.96-24.98 145.14-24.7 146.09-23.98 147.04-23.25 147.61-22 148.19-20.75 148.19-18.75ZM137.29-11.95L137.29-11.95Q140.84-12.5 142.91-14.45 144.99-16.4 144.99-19.25L144.99-19.25Q144.99-21.15 144.34-21.98 143.69-22.8 142.49-22.8L142.49-22.8Q141.19-22.8 140.21-21.8 139.24-20.8 138.59-19.23 137.94-17.65 137.61-15.73 137.29-13.8 137.29-11.95ZM150.94-25L155.94-25 155.94-20.8Q156.54-21.7 157.11-22.5 157.69-23.3 158.39-23.9 159.09-24.5 159.94-24.88 160.79-25.25 161.84-25.25L161.84-25.25Q163.54-25.25 164.34-24.38 165.14-23.5 165.14-22.25L165.14-22.25Q165.14-21.5 164.89-21 164.64-20.5 164.29-20.2 163.94-19.9 163.54-19.78 163.14-19.65 162.84-19.65L162.84-19.65Q162.39-19.65 162.11-19.85 161.84-20.05 161.56-20.28 161.29-20.5 160.94-20.7 160.59-20.9 160.04-20.9L160.04-20.9Q158.89-20.9 157.84-20.1 156.79-19.3 155.94-18.4L155.94-18.4 155.94 0 150.94 0 150.94-25ZM190.38-25L195.38-25 195.38-1.05Q196.63-1.45 197.61-1.95 198.58-2.45 199.31-3.3 200.03-4.15 200.51-5.5 200.98-6.85 201.23-8.95L201.23-8.95 203.08-8.95Q202.68-6.3 202.06-4.63 201.43-2.95 200.51-1.93 199.58-0.9 198.31-0.33 197.03 0.25 195.38 0.75L195.38 0.75 195.38 3.95Q195.38 6.3 194.88 7.93 194.38 9.55 193.51 10.58 192.63 11.6 191.51 12.05 190.38 12.5 189.13 12.5L189.13 12.5Q186.63 12.5 185.23 11.08 183.83 9.65 183.83 7.6L183.83 7.6Q183.83 6.3 184.41 5.25 184.98 4.2 185.91 3.33 186.83 2.45 188.01 1.78 189.18 1.1 190.38 0.6L190.38 0.6 190.38-2.55Q189.38-1.1 188.11-0.4 186.83 0.3 185.53 0.3L185.53 0.3Q184.08 0.3 182.78-0.1 181.48-0.5 180.53-1.43 179.58-2.35 179.03-3.83 178.48-5.3 178.48-7.45L178.48-7.45 178.48-25 183.48-25 183.48-8Q183.48-5.55 184.33-4.53 185.18-3.5 186.48-3.5L186.48-3.5Q187.18-3.5 187.88-3.85 188.58-4.2 189.13-4.88 189.68-5.55 190.03-6.5 190.38-7.45 190.38-8.7L190.38-8.7 190.38-25ZM188.18 9.9L188.18 9.9Q189.53 9.9 189.96 8.88 190.38 7.85 190.38 6.1L190.38 6.1 190.38 2.6Q187.88 3.75 186.83 4.88 185.78 6 185.78 7.4L185.78 7.4Q185.78 8.55 186.41 9.22 187.03 9.9 188.18 9.9ZM210.33-25.25L210.33-25.25Q212.28-25.25 213.68-24.65 215.08-24.05 215.98-22.98 216.88-21.9 217.4-20.45 217.93-19 218.18-17.35L218.18-17.35 218.48-17.35Q220.58-17.35 222.33-18.2 224.08-19.05 225.33-20.35L225.33-20.35 226.08-19Q225.08-17.4 222.9-16.35 220.73-15.3 218.43-14.9L218.43-14.9Q218.43-14.4 218.45-13.9 218.48-13.4 218.48-12.85L218.48-12.85Q218.48-6.7 216.23-3.2 213.98 0.3 209.93 0.3L209.93 0.3Q208.28 0.3 206.6-0.3 204.93-0.9 203.58-2.3 202.23-3.7 201.4-5.9 200.58-8.1 200.58-11.35L200.58-11.35Q200.58-13.55 201.05-16 201.53-18.45 202.65-20.5 203.78-22.55 205.65-23.9 207.53-25.25 210.33-25.25ZM210.83-3.5L210.83-3.5Q213.48-3.5 214.73-6.13 215.98-8.75 215.98-13.55L215.98-13.55Q215.98-13.85 215.98-14.15 215.98-14.45 215.93-14.75L215.93-14.75Q214.48-14.85 213.85-15.4 213.23-15.95 213.23-17.25L213.23-17.25Q213.23-18.4 213.73-18.88 214.23-19.35 215.23-19.4L215.23-19.4Q214.63-21.15 213.7-21.83 212.78-22.5 211.63-22.5L211.63-22.5Q210.08-22.5 209-21.48 207.93-20.45 207.25-18.85 206.58-17.25 206.28-15.33 205.98-13.4 205.98-11.55L205.98-11.55Q205.98-9.1 206.43-7.55 206.88-6 207.58-5.1 208.28-4.2 209.13-3.85 209.98-3.5 210.83-3.5ZM234.03-25L239.03-25 239.03-8Q239.03-7.5 239.08-6.75 239.13-6 239.35-5.28 239.58-4.55 240.03-4.03 240.48-3.5 241.28-3.5L241.28-3.5Q243.73-3.5 244.88-8.95L244.88-8.95 246.73-8.95Q246.18-5.8 245.33-3.98 244.48-2.15 243.53-1.2 242.58-0.25 241.58 0.03 240.58 0.3 239.78 0.3L239.78 0.3Q238.63 0.3 237.8-0.1 236.98-0.5 236.4-1.15 235.83-1.8 235.48-2.65 235.13-3.5 234.93-4.4L234.93-4.4Q233.98-1.95 232.43-0.83 230.88 0.3 229.18 0.3L229.18 0.3Q227.73 0.3 226.43-0.1 225.13-0.5 224.18-1.43 223.23-2.35 222.68-3.83 222.13-5.3 222.13-7.45L222.13-7.45 222.13-25 227.13-25 227.13-8Q227.13-5.55 227.98-4.53 228.83-3.5 230.13-3.5L230.13-3.5Q230.83-3.5 231.53-3.88 232.23-4.25 232.78-4.95 233.33-5.65 233.68-6.65 234.03-7.65 234.03-8.95L234.03-8.95 234.03-25ZM244.82-25L249.82-25 249.82-20.8Q250.42-21.7 251-22.5 251.57-23.3 252.27-23.9 252.97-24.5 253.82-24.88 254.67-25.25 255.72-25.25L255.72-25.25Q257.42-25.25 258.22-24.38 259.02-23.5 259.02-22.25L259.02-22.25Q259.02-21.5 258.77-21 258.52-20.5 258.17-20.2 257.82-19.9 257.42-19.78 257.02-19.65 256.72-19.65L256.72-19.65Q256.27-19.65 256-19.85 255.72-20.05 255.45-20.28 255.17-20.5 254.82-20.7 254.47-20.9 253.92-20.9L253.92-20.9Q252.77-20.9 251.72-20.1 250.67-19.3 249.82-18.4L249.82-18.4 249.82 0 244.82 0 244.82-25ZM278.77-8.95L280.87-8.95Q279.42-6.95 277.9-5.63 276.37-4.3 274.92-3.3L274.92-3.3Q274.37-2.3 273.52-1.63 272.67-0.95 271.7-0.53 270.72-0.1 269.75 0.1 268.77 0.3 267.97 0.3L267.97 0.3Q265.77 0.3 264.35-0.4 262.92-1.1 262.07-2.18 261.22-3.25 260.87-4.58 260.52-5.9 260.52-7.1L260.52-7.1Q260.52-8.4 261.05-9.38 261.57-10.35 262.32-10.75L262.32-10.75Q263.62-14.5 264.87-18.18 266.12-21.85 266.52-25.55L266.52-25.55 271.57-26.55Q272.77-21.8 273.55-18.8 274.32-15.8 274.8-13.73 275.27-11.65 275.5-10.08 275.72-8.5 275.72-6.6L275.72-6.6Q276.57-7.15 277.32-7.78 278.07-8.4 278.77-8.95L278.77-8.95ZM270.42-6.95L270.42-6.95Q270.42-8.5 270.25-9.7 270.07-10.9 269.72-12.35 269.37-13.8 268.85-15.88 268.32-17.95 267.62-21.2L267.62-21.2Q267.32-18.4 266.4-15.85 265.47-13.3 264.72-10.6L264.72-10.6Q265.17-10.3 265.5-9.78 265.82-9.25 265.82-8.4L265.82-8.4Q265.82-7.45 265.32-6.95 264.82-6.45 264.22-6.45L264.22-6.45Q263.42-6.45 262.87-7.15L262.87-7.15Q263.27-5.4 264.27-4.42 265.27-3.45 266.92-3.45L266.92-3.45Q268.52-3.45 269.47-4.28 270.42-5.1 270.42-6.95ZM294.37-18.75L294.37-18.75Q294.37-15.25 291.49-12.9 288.62-10.55 283.52-10L283.52-10Q283.72-8 284.24-6.75 284.77-5.5 285.52-4.78 286.27-4.05 287.24-3.78 288.22-3.5 289.27-3.5L289.27-3.5Q291.67-3.5 293.77-4.75 295.87-6 297.17-8.95L297.17-8.95 298.77-8.95Q298.12-7.1 296.97-5.43 295.82-3.75 294.27-2.48 292.72-1.2 290.92-0.45 289.12 0.3 287.22 0.3L287.22 0.3Q285.47 0.3 283.84-0.3 282.22-0.9 280.97-2.27 279.72-3.65 278.94-5.85 278.17-8.05 278.17-11.25L278.17-11.25Q278.17-13.35 278.64-15.8 279.12-18.25 280.24-20.35 281.37-22.45 283.19-23.85 285.02-25.25 287.72-25.25L287.72-25.25Q288.97-25.25 290.14-24.98 291.32-24.7 292.27-23.98 293.22-23.25 293.79-22 294.37-20.75 294.37-18.75ZM283.47-11.95L283.47-11.95Q287.02-12.5 289.09-14.45 291.17-16.4 291.17-19.25L291.17-19.25Q291.17-21.15 290.52-21.98 289.87-22.8 288.67-22.8L288.67-22.8Q287.37-22.8 286.39-21.8 285.42-20.8 284.77-19.23 284.12-17.65 283.79-15.73 283.47-13.8 283.47-11.95ZM297.17-34.3L302.17-35 302.17-8Q302.17-7.5 302.22-6.75 302.27-6 302.49-5.28 302.72-4.55 303.17-4.03 303.62-3.5 304.42-3.5L304.42-3.5Q306.87-3.5 308.02-8.95L308.02-8.95 309.87-8.95Q309.32-5.8 308.47-3.98 307.62-2.15 306.67-1.2 305.72-0.25 304.72 0.03 303.72 0.3 302.92 0.3L302.92 0.3Q301.17 0.3 300.07-0.38 298.97-1.05 298.32-2.1 297.67-3.15 297.42-4.45 297.17-5.75 297.17-6.95L297.17-6.95 297.17-34.3ZM312.91-27.4L312.91-25 316.96-25 316.96-23.25 312.91-23.25 312.91 4Q312.91 6.65 312.39 8.3 311.86 9.95 311.01 10.9 310.16 11.85 309.04 12.18 307.91 12.5 306.66 12.5L306.66 12.5Q303.96 12.5 302.69 11.25 301.41 10 301.41 7.65L301.41 7.65Q301.41 6.4 301.99 5.35 302.56 4.3 303.49 3.43 304.41 2.55 305.56 1.88 306.71 1.2 307.91 0.7L307.91 0.7 307.91-28.8Q307.91-33.15 309.96-35.33 312.01-37.5 315.21-37.5L315.21-37.5Q316.71-37.5 317.96-37.05 319.21-36.6 320.16-35.65 321.11-34.7 321.64-33.3 322.16-31.9 322.16-30L322.16-30 320.21-30Q319.91-32 319.14-33.15 318.36-34.3 316.56-34.3L316.56-34.3Q315.36-34.3 314.66-33.77 313.96-33.25 313.56-32.35 313.16-31.45 313.04-30.18 312.91-28.9 312.91-27.4L312.91-27.4ZM305.66 9.9L305.66 9.9Q307.11 9.9 307.51 8.35 307.91 6.8 307.91 4.1L307.91 4.1 307.91 2.55Q305.66 3.65 304.51 4.95 303.36 6.25 303.36 7.5L303.36 7.5Q303.36 8.5 304.01 9.2 304.66 9.9 305.66 9.9ZM319.51-3.45L319.51-3.45Q319.51-4.1 319.81-4.65 320.11-5.2 320.59-5.58 321.06-5.95 321.64-6.18 322.21-6.4 322.76-6.4L322.76-6.4Q324.66-6.4 325.49-5.25 326.31-4.1 326.31-2.4L326.31-2.4Q326.31-1.2 325.94 0.13 325.56 1.45 324.94 2.68 324.31 3.9 323.49 4.88 322.66 5.85 321.71 6.3L321.71 6.3Q321.26 6.05 321.14 5.73 321.01 5.4 321.01 5.1L321.01 5.1Q321.01 4.6 321.19 4.08 321.36 3.55 321.56 3.05 321.76 2.55 321.94 2.05 322.11 1.55 322.11 1.1L322.11 1.1Q322.11 0.35 321.91 0.03 321.71-0.3 321.44-0.48 321.16-0.65 320.81-0.73 320.46-0.8 320.19-1.07 319.91-1.35 319.71-1.88 319.51-2.4 319.51-3.45ZM350.56-25.25L350.56-25.25Q352.51-25.25 353.91-24.65 355.31-24.05 356.21-22.98 357.11-21.9 357.63-20.45 358.16-19 358.41-17.35L358.41-17.35 358.71-17.35Q360.81-17.35 362.56-18.2 364.31-19.05 365.56-20.35L365.56-20.35 366.31-19Q365.31-17.4 363.13-16.35 360.96-15.3 358.66-14.9L358.66-14.9Q358.66-14.4 358.68-13.9 358.71-13.4 358.71-12.85L358.71-12.85Q358.71-6.7 356.46-3.2 354.21 0.3 350.16 0.3L350.16 0.3Q348.51 0.3 346.83-0.3 345.16-0.9 343.81-2.3 342.46-3.7 341.63-5.9 340.81-8.1 340.81-11.35L340.81-11.35Q340.81-13.55 341.28-16 341.76-18.45 342.88-20.5 344.01-22.55 345.88-23.9 347.76-25.25 350.56-25.25ZM351.06-3.5L351.06-3.5Q353.71-3.5 354.96-6.13 356.21-8.75 356.21-13.55L356.21-13.55Q356.21-13.85 356.21-14.15 356.21-14.45 356.16-14.75L356.16-14.75Q354.71-14.85 354.08-15.4 353.46-15.95 353.46-17.25L353.46-17.25Q353.46-18.4 353.96-18.88 354.46-19.35 355.46-19.4L355.46-19.4Q354.86-21.15 353.93-21.83 353.01-22.5 351.86-22.5L351.86-22.5Q350.31-22.5 349.23-21.48 348.16-20.45 347.48-18.85 346.81-17.25 346.51-15.33 346.21-13.4 346.21-11.55L346.21-11.55Q346.21-9.1 346.66-7.55 347.11-6 347.81-5.1 348.51-4.2 349.36-3.85 350.21-3.5 351.06-3.5ZM362.35-25L367.35-25 367.35-21.2Q368.1-22.55 368.88-23.38 369.65-24.2 370.45-24.6 371.25-25 371.98-25.13 372.7-25.25 373.35-25.25L373.35-25.25Q375.6-25.25 376.98-24.4 378.35-23.55 379.05-22.23 379.75-20.9 379.98-19.33 380.2-17.75 380.2-16.3L380.2-16.3Q380.2-15.4 380.15-14.33 380.1-13.25 380.05-12.13 380-11 379.95-9.88 379.9-8.75 379.9-7.8L379.9-7.8Q379.9-7.4 379.95-6.68 380-5.95 380.2-5.25 380.4-4.55 380.85-4.03 381.3-3.5 382.15-3.5L382.15-3.5Q383.3-3.5 384.23-4.8 385.15-6.1 385.75-8.95L385.75-8.95 387.6-8.95Q387.05-5.8 386.2-3.98 385.35-2.15 384.4-1.2 383.45-0.25 382.5 0.03 381.55 0.3 380.75 0.3L380.75 0.3Q379.15 0.3 378.05-0.33 376.95-0.95 376.25-2 375.55-3.05 375.23-4.45 374.9-5.85 374.9-7.35L374.9-7.35Q374.9-7.8 374.93-9.03 374.95-10.25 374.98-11.65 375-13.05 375.03-14.3 375.05-15.55 375.05-16.05L375.05-16.05Q375.05-17.65 374.8-18.7 374.55-19.75 374.1-20.35 373.65-20.95 373.08-21.2 372.5-21.45 371.85-21.45L371.85-21.45Q370.3-21.45 369.18-20.2 368.05-18.95 367.35-16L367.35-16 367.35 0 362.35 0 362.35-25ZM401.35-18.75L401.35-18.75Q401.35-15.25 398.48-12.9 395.6-10.55 390.5-10L390.5-10Q390.7-8 391.23-6.75 391.75-5.5 392.5-4.78 393.25-4.05 394.23-3.78 395.2-3.5 396.25-3.5L396.25-3.5Q398.65-3.5 400.75-4.75 402.85-6 404.15-8.95L404.15-8.95 405.75-8.95Q405.1-7.1 403.95-5.43 402.8-3.75 401.25-2.48 399.7-1.2 397.9-0.45 396.1 0.3 394.2 0.3L394.2 0.3Q392.45 0.3 390.83-0.3 389.2-0.9 387.95-2.27 386.7-3.65 385.93-5.85 385.15-8.05 385.15-11.25L385.15-11.25Q385.15-13.35 385.63-15.8 386.1-18.25 387.23-20.35 388.35-22.45 390.18-23.85 392-25.25 394.7-25.25L394.7-25.25Q395.95-25.25 397.13-24.98 398.3-24.7 399.25-23.98 400.2-23.25 400.78-22 401.35-20.75 401.35-18.75ZM390.45-11.95L390.45-11.95Q394-12.5 396.08-14.45 398.15-16.4 398.15-19.25L398.15-19.25Q398.15-21.15 397.5-21.98 396.85-22.8 395.65-22.8L395.65-22.8Q394.35-22.8 393.38-21.8 392.4-20.8 391.75-19.23 391.1-17.65 390.78-15.73 390.45-13.8 390.45-11.95ZM426.2-17.35L426.2-17.35Q426.6-17.7 426.82-18.48 427.05-19.25 427.05-19.95L427.05-19.95Q427.05-21.1 426.32-21.85 425.6-22.6 424.3-22.6L424.3-22.6Q422.95-22.6 422.05-21.6 421.15-20.6 420.6-19.07 420.05-17.55 419.82-15.68 419.6-13.8 419.6-12L419.6-12Q419.6-9.35 420.07-7.7 420.55-6.05 421.35-5.13 422.15-4.2 423.22-3.85 424.3-3.5 425.5-3.5L425.5-3.5Q428.15-3.5 429.97-4.83 431.8-6.15 433.1-8.95L433.1-8.95 434.8-8.95Q434.2-7.1 433.1-5.43 432-3.75 430.55-2.48 429.1-1.2 427.4-0.45 425.7 0.3 423.85 0.3L423.85 0.3Q422.1 0.3 420.4-0.3 418.7-0.9 417.35-2.27 416-3.65 415.15-5.88 414.3-8.1 414.3-11.35L414.3-11.35Q414.3-13.45 414.67-15.88 415.05-18.3 416.07-20.38 417.1-22.45 418.9-23.85 420.7-25.25 423.55-25.25L423.55-25.25Q426.7-25.25 428.35-23.73 430-22.2 430-19.25L430-19.25Q430-18 429.52-17.15 429.05-16.3 428.05-16.3L428.05-16.3Q426.95-16.3 426.2-17.35ZM446.49-25L451.49-25 451.49-8Q451.49-7.5 451.54-6.75 451.59-6 451.82-5.28 452.04-4.55 452.49-4.03 452.94-3.5 453.74-3.5L453.74-3.5Q456.19-3.5 457.34-8.95L457.34-8.95 459.19-8.95Q458.64-5.8 457.79-3.98 456.94-2.15 455.99-1.2 455.04-0.25 454.04 0.03 453.04 0.3 452.24 0.3L452.24 0.3Q451.09 0.3 450.27-0.1 449.44-0.5 448.87-1.15 448.29-1.8 447.94-2.65 447.59-3.5 447.39-4.45L447.39-4.45Q446.64-2.5 444.97-1.1 443.29 0.3 440.89 0.3L440.89 0.3Q439.39 0.3 437.87-0.3 436.34-0.9 435.12-2.27 433.89-3.65 433.12-5.83 432.34-8 432.34-11.15L432.34-11.15Q432.34-13.45 432.87-15.95 433.39-18.45 434.54-20.5 435.69-22.55 437.49-23.9 439.29-25.25 441.84-25.25L441.84-25.25Q442.44-25.25 443.12-25.13 443.79-25 444.42-24.7 445.04-24.4 445.59-23.88 446.14-23.35 446.49-22.6L446.49-22.6 446.49-25ZM442.14-3.5L442.14-3.5Q442.89-3.5 443.67-3.93 444.44-4.35 445.07-5.08 445.69-5.8 446.09-6.8 446.49-7.8 446.49-8.95L446.49-8.95 446.49-20.35Q446.14-21.15 445.42-21.83 444.69-22.5 443.54-22.5L443.54-22.5Q441.94-22.5 440.79-21.43 439.64-20.35 438.94-18.73 438.24-17.1 437.92-15.18 437.59-13.25 437.59-11.5L437.59-11.5Q437.59-7.2 438.77-5.35 439.94-3.5 442.14-3.5ZM457.29-25L462.29-25 462.29-20.8Q462.89-21.7 463.47-22.5 464.04-23.3 464.74-23.9 465.44-24.5 466.29-24.88 467.14-25.25 468.19-25.25L468.19-25.25Q469.89-25.25 470.69-24.38 471.49-23.5 471.49-22.25L471.49-22.25Q471.49-21.5 471.24-21 470.99-20.5 470.64-20.2 470.29-19.9 469.89-19.78 469.49-19.65 469.19-19.65L469.19-19.65Q468.74-19.65 468.47-19.85 468.19-20.05 467.92-20.28 467.64-20.5 467.29-20.7 466.94-20.9 466.39-20.9L466.39-20.9Q465.24-20.9 464.19-20.1 463.14-19.3 462.29-18.4L462.29-18.4 462.29 0 457.29 0 457.29-25ZM487.54-34.3L492.54-35 492.54-8Q492.54-7.5 492.59-6.75 492.64-6 492.86-5.28 493.09-4.55 493.54-4.03 493.99-3.5 494.79-3.5L494.79-3.5Q497.24-3.5 498.39-8.95L498.39-8.95 500.24-8.95Q499.69-5.8 498.84-3.98 497.99-2.15 497.04-1.2 496.09-0.25 495.09 0.03 494.09 0.3 493.29 0.3L493.29 0.3Q492.14 0.3 491.31-0.1 490.49-0.5 489.91-1.15 489.34-1.8 488.99-2.65 488.64-3.5 488.44-4.45L488.44-4.45Q487.69-2.5 486.01-1.1 484.34 0.3 481.94 0.3L481.94 0.3Q480.44 0.3 478.91-0.3 477.39-0.9 476.16-2.27 474.94-3.65 474.16-5.83 473.39-8 473.39-11.15L473.39-11.15Q473.39-13.45 473.91-15.95 474.44-18.45 475.59-20.5 476.74-22.55 478.54-23.9 480.34-25.25 482.89-25.25L482.89-25.25Q483.49-25.25 484.16-25.13 484.84-25 485.46-24.7 486.09-24.4 486.64-23.88 487.19-23.35 487.54-22.6L487.54-22.6 487.54-34.3ZM483.19-3.5L483.19-3.5Q483.94-3.5 484.71-3.93 485.49-4.35 486.11-5.08 486.74-5.8 487.14-6.8 487.54-7.8 487.54-8.95L487.54-8.95 487.54-20.35Q487.19-21.15 486.46-21.83 485.74-22.5 484.59-22.5L484.59-22.5Q482.99-22.5 481.84-21.43 480.69-20.35 479.99-18.73 479.29-17.1 478.96-15.18 478.64-13.25 478.64-11.5L478.64-11.5Q478.64-7.2 479.81-5.35 480.99-3.5 483.19-3.5ZM522.53-25L527.53-25 527.53-8Q527.53-7.5 527.58-6.75 527.63-6 527.86-5.28 528.08-4.55 528.53-4.03 528.98-3.5 529.78-3.5L529.78-3.5Q532.23-3.5 533.38-8.95L533.38-8.95 535.23-8.95Q534.68-5.8 533.83-3.98 532.98-2.15 532.03-1.2 531.08-0.25 530.08 0.03 529.08 0.3 528.28 0.3L528.28 0.3Q527.13 0.3 526.31-0.1 525.48-0.5 524.91-1.15 524.33-1.8 523.98-2.65 523.63-3.5 523.43-4.45L523.43-4.45Q522.68-2.5 521.01-1.1 519.33 0.3 516.93 0.3L516.93 0.3Q515.43 0.3 513.91-0.3 512.38-0.9 511.16-2.27 509.93-3.65 509.16-5.83 508.38-8 508.38-11.15L508.38-11.15Q508.38-13.45 508.91-15.95 509.43-18.45 510.58-20.5 511.73-22.55 513.53-23.9 515.33-25.25 517.88-25.25L517.88-25.25Q518.48-25.25 519.16-25.13 519.83-25 520.46-24.7 521.08-24.4 521.63-23.88 522.18-23.35 522.53-22.6L522.53-22.6 522.53-25ZM518.18-3.5L518.18-3.5Q518.93-3.5 519.71-3.93 520.48-4.35 521.11-5.08 521.73-5.8 522.13-6.8 522.53-7.8 522.53-8.95L522.53-8.95 522.53-20.35Q522.18-21.15 521.46-21.83 520.73-22.5 519.58-22.5L519.58-22.5Q517.98-22.5 516.83-21.43 515.68-20.35 514.98-18.73 514.28-17.1 513.96-15.18 513.63-13.25 513.63-11.5L513.63-11.5Q513.63-7.2 514.81-5.35 515.98-3.5 518.18-3.5ZM533.38-31.9L538.38-32.6 538.38-25 542.23-25 542.23-23.25 538.38-23.25 538.38-8Q538.38-7.4 538.43-6.63 538.48-5.85 538.7-5.15 538.93-4.45 539.4-3.98 539.88-3.5 540.73-3.5L540.73-3.5Q542.08-3.5 543.3-4.85 544.53-6.2 545.23-8.95L545.23-8.95 547.08-8.95Q546.23-5.8 545.25-3.98 544.28-2.15 543.23-1.2 542.18-0.25 541.15 0.03 540.13 0.3 539.28 0.3L539.28 0.3Q537.48 0.3 536.33-0.38 535.18-1.05 534.53-2.1 533.88-3.15 533.63-4.42 533.38-5.7 533.38-6.95L533.38-6.95 533.38-23.25 531.68-23.25 531.68-25 533.38-25 533.38-31.9ZM569.32-25L574.32-25 574.32-8Q574.32-7.5 574.37-6.75 574.42-6 574.65-5.28 574.87-4.55 575.32-4.03 575.77-3.5 576.57-3.5L576.57-3.5Q579.02-3.5 580.17-8.95L580.17-8.95 582.02-8.95Q581.47-5.8 580.62-3.98 579.77-2.15 578.82-1.2 577.87-0.25 576.87 0.03 575.87 0.3 575.07 0.3L575.07 0.3Q573.92 0.3 573.1-0.1 572.27-0.5 571.7-1.15 571.12-1.8 570.77-2.65 570.42-3.5 570.22-4.45L570.22-4.45Q569.47-2.5 567.8-1.1 566.12 0.3 563.72 0.3L563.72 0.3Q562.22 0.3 560.7-0.3 559.17-0.9 557.95-2.27 556.72-3.65 555.95-5.83 555.17-8 555.17-11.15L555.17-11.15Q555.17-13.45 555.7-15.95 556.22-18.45 557.37-20.5 558.52-22.55 560.32-23.9 562.12-25.25 564.67-25.25L564.67-25.25Q565.27-25.25 565.95-25.13 566.62-25 567.25-24.7 567.87-24.4 568.42-23.88 568.97-23.35 569.32-22.6L569.32-22.6 569.32-25ZM564.97-3.5L564.97-3.5Q565.72-3.5 566.5-3.93 567.27-4.35 567.9-5.08 568.52-5.8 568.92-6.8 569.32-7.8 569.32-8.95L569.32-8.95 569.32-20.35Q568.97-21.15 568.25-21.83 567.52-22.5 566.37-22.5L566.37-22.5Q564.77-22.5 563.62-21.43 562.47-20.35 561.77-18.73 561.07-17.1 560.75-15.18 560.42-13.25 560.42-11.5L560.42-11.5Q560.42-7.2 561.6-5.35 562.77-3.5 564.97-3.5ZM590.92-31.9L595.92-32.6 595.92-25 599.77-25 599.77-23.25 595.92-23.25 595.92-8Q595.92-7.4 595.97-6.63 596.02-5.85 596.24-5.15 596.47-4.45 596.94-3.98 597.42-3.5 598.27-3.5L598.27-3.5Q599.62-3.5 600.84-4.85 602.07-6.2 602.77-8.95L602.77-8.95 604.62-8.95Q603.77-5.8 602.79-3.98 601.82-2.15 600.77-1.2 599.72-0.25 598.69 0.03 597.67 0.3 596.82 0.3L596.82 0.3Q595.02 0.3 593.87-0.38 592.72-1.05 592.07-2.1 591.42-3.15 591.17-4.42 590.92-5.7 590.92-6.95L590.92-6.95 590.92-23.25 589.22-23.25 589.22-25 590.92-25 590.92-31.9ZM602.72-25L607.72-25 607.72-8Q607.72-7.5 607.77-6.75 607.82-6 608.04-5.28 608.27-4.55 608.72-4.03 609.17-3.5 609.97-3.5L609.97-3.5Q612.42-3.5 613.57-8.95L613.57-8.95 615.42-8.95Q614.87-5.8 614.02-3.98 613.17-2.15 612.22-1.2 611.27-0.25 610.27 0.03 609.27 0.3 608.47 0.3L608.47 0.3Q606.72 0.3 605.62-0.38 604.52-1.05 603.87-2.1 603.22-3.15 602.97-4.45 602.72-5.75 602.72-6.95L602.72-6.95 602.72-25ZM601.82-32.2L601.82-32.2Q601.82-33.55 602.77-34.55 603.72-35.55 605.12-35.55L605.12-35.55Q606.47-35.55 607.47-34.55 608.47-33.55 608.47-32.2L608.47-32.2Q608.47-30.8 607.47-29.85 606.47-28.9 605.12-28.9L605.12-28.9Q603.72-28.9 602.77-29.85 601.82-30.8 601.82-32.2ZM613.51-25L618.51-25 618.51-21.55Q619.81-23.95 621.26-24.6 622.71-25.25 624.01-25.25L624.01-25.25Q625.31-25.25 626.29-24.9 627.26-24.55 627.96-23.95 628.66-23.35 629.14-22.55 629.61-21.75 629.91-20.8L629.91-20.8Q630.61-22.3 631.36-23.18 632.11-24.05 632.86-24.53 633.61-25 634.34-25.13 635.06-25.25 635.66-25.25L635.66-25.25Q637.91-25.25 639.29-24.4 640.66-23.55 641.36-22.23 642.06-20.9 642.29-19.33 642.51-17.75 642.51-16.3L642.51-16.3Q642.51-15.4 642.46-14.33 642.41-13.25 642.36-12.13 642.31-11 642.26-9.88 642.21-8.75 642.21-7.8L642.21-7.8Q642.21-7.4 642.26-6.68 642.31-5.95 642.51-5.25 642.71-4.55 643.16-4.03 643.61-3.5 644.46-3.5L644.46-3.5Q645.61-3.5 646.54-4.8 647.46-6.1 648.06-8.95L648.06-8.95 649.91-8.95Q649.36-5.8 648.51-3.98 647.66-2.15 646.71-1.2 645.76-0.25 644.81 0.03 643.86 0.3 643.06 0.3L643.06 0.3Q641.46 0.3 640.36-0.33 639.26-0.95 638.56-2 637.86-3.05 637.54-4.45 637.21-5.85 637.21-7.35L637.21-7.35Q637.21-7.8 637.24-9.03 637.26-10.25 637.29-11.65 637.31-13.05 637.34-14.3 637.36-15.55 637.36-16.05L637.36-16.05Q637.36-17.65 637.11-18.7 636.86-19.75 636.41-20.35 635.96-20.95 635.39-21.2 634.81-21.45 634.16-21.45L634.16-21.45Q632.61-21.45 631.64-20.2 630.66-18.95 630.26-16L630.26-16 630.26 0 625.26 0 625.26-16.7Q625.26-17.6 625.19-18.45 625.11-19.3 624.81-19.98 624.51-20.65 623.96-21.05 623.41-21.45 622.46-21.45L622.46-21.45Q620.86-21.45 620.04-20.13 619.21-18.8 618.51-16L618.51-16 618.51 0 613.51 0 613.51-25ZM663.81-18.75L663.81-18.75Q663.81-15.25 660.94-12.9 658.06-10.55 652.96-10L652.96-10Q653.16-8 653.69-6.75 654.21-5.5 654.96-4.78 655.71-4.05 656.69-3.78 657.66-3.5 658.71-3.5L658.71-3.5Q661.11-3.5 663.21-4.75 665.31-6 666.61-8.95L666.61-8.95 668.21-8.95Q667.56-7.1 666.41-5.43 665.26-3.75 663.71-2.48 662.16-1.2 660.36-0.45 658.56 0.3 656.66 0.3L656.66 0.3Q654.91 0.3 653.29-0.3 651.66-0.9 650.41-2.27 649.16-3.65 648.39-5.85 647.61-8.05 647.61-11.25L647.61-11.25Q647.61-13.35 648.09-15.8 648.56-18.25 649.69-20.35 650.81-22.45 652.64-23.85 654.46-25.25 657.16-25.25L657.16-25.25Q658.41-25.25 659.59-24.98 660.76-24.7 661.71-23.98 662.66-23.25 663.24-22 663.81-20.75 663.81-18.75ZM652.91-11.95L652.91-11.95Q656.46-12.5 658.54-14.45 660.61-16.4 660.61-19.25L660.61-19.25Q660.61-21.15 659.96-21.98 659.31-22.8 658.11-22.8L658.11-22.8Q656.81-22.8 655.84-21.8 654.86-20.8 654.21-19.23 653.56-17.65 653.24-15.73 652.91-13.8 652.91-11.95ZM666.71-3.05L666.71-3.05Q666.71-4.4 667.66-5.4 668.61-6.4 670.01-6.4L670.01-6.4Q671.36-6.4 672.36-5.4 673.36-4.4 673.36-3.05L673.36-3.05Q673.36-1.65 672.36-0.7 671.36 0.25 670.01 0.25L670.01 0.25Q668.61 0.25 667.66-0.7 666.71-1.65 666.71-3.05Z" opacity="1" transform="matrix(1,0,0,1,0,0)" fill="#0080ff" class="undefined-text-1" data-fill-palette-color="secondary" id="text-1"></path></svg></g></svg></g></svg></g></svg></g><g transform="matrix(1,0,0,1,151.05223246758692,0)"><svg viewBox="0 0 93.41553506482614 110.15527863175608" height="110.15527863175608" width="93.41553506482614"><g><svg xmlns="http://www.w3.org/2000/svg" xmlns:xlink="http://www.w3.org/1999/xlink" version="1.1" x="8" y="0" viewBox="18.375 5 63.25 89.99900817871094" enable-background="new 0 0 100 100" xml:space="preserve" height="110.15527863175608" width="77.41553506482614" class="icon-icon-0" data-fill-palette-color="accent" id="icon-0"><g fill="#0080ff" data-fill-palette-color="accent"><path d="M21.564 54.621c0.09 0.006 0.178 0.01 0.267 0.01 1.762 0 3.258-1.357 3.396-3.145l0.969-12.488 6.543-4.716v18.114c0 0.911 0.247 1.761 0.642 2.51l-7.346 30.435c-0.529 2.2 0.821 4.407 3.016 4.938 0.325 0.077 0.647 0.111 0.966 0.111 1.847 0 3.521-1.256 3.974-3.129l6.998-29.003 7.953 3.792-0.667 10.765c-0.14 2.254 1.573 4.198 3.83 4.336 0.084 0.005 0.171 0.008 0.259 0.008 2.144 0 3.944-1.669 4.077-3.838l0.842-13.521c0.104-1.664-0.814-3.229-2.323-3.943l-11.309-5.392V38.493l3.955 4.72c0.562 0.671 1.361 1.1 2.229 1.199l12.024 1.363c0.131 0.013 0.26 0.021 0.389 0.021 1.711 0 3.186-1.285 3.381-3.024 0.215-1.872-1.133-3.56-3.004-3.773l-10.67-1.208-8.69-10.375c-0.258-0.66-0.641-1.255-1.119-1.761-0.456-1.763-2.043-3.071-3.948-3.071-1.418 0-2.665 0.719-3.398 1.812l-13.869 9.997c-0.812 0.587-1.327 1.503-1.403 2.501l-1.092 14.062C18.283 52.836 19.688 54.477 21.564 54.621z" fill="#0080ff" data-fill-palette-color="accent"></path><circle cx="41.753" cy="13.466" r="8.5" fill="#0080ff" data-fill-palette-color="accent"></circle><path d="M81.625 51.047L71.58 54.182l2.311 2.312-10.979 8.809c-0.322 0.258-0.512 0.65-0.512 1.063v12.272H41.753c-0.753 0-1.363 0.61-1.363 1.363v12.273H19.738c-0.752 0-1.363 0.609-1.363 1.362 0 0.754 0.611 1.363 1.363 1.363h22.015c0.752 0 1.363-0.609 1.363-1.363V81.365h20.647c0.754 0 1.363-0.609 1.363-1.362V67.02l10.707-8.588 2.652 2.656L81.625 51.047z" fill="#0080ff" data-fill-palette-color="accent"></path></g></svg></g></svg></g><g><rect width="151.05223246758692" height="4.484525613338125" y="104.67075301841794" x="244.46776753241306" fill="#0080ff" data-fill-palette-color="accent"></rect><rect width="151.05223246758692" height="4.484525613338125" y="104.67075301841794" x="0" fill="#0080ff" data-fill-palette-color="accent"></rect><rect width="151.05223246758692" height="4.484525613338125" y="95.7017017917417" x="244.46776753241306" fill="#0080ff" data-fill-palette-color="accent"></rect><rect width="151.05223246758692" height="4.484525613338125" y="95.7017017917417" x="0" fill="#0080ff" data-fill-palette-color="accent"></rect></g></svg></g><defs></defs></svg><rect width="395.52" height="201.60202254747898" fill="none" stroke="none" visibility="hidden"></rect></g></svg></g></svg>